<svg width="40" height="40" viewBox="0 0 40 40" fill="none" xmlns="http://www.w3.org/2000/svg">
<path d="M10.8333 13.3333C12.2141 13.3333 13.3333 12.214 13.3333 10.8333C13.3333 9.45254 12.2141 8.33325 10.8333 8.33325C9.45262 8.33325 8.33334 9.45254 8.33334 10.8333C8.33334 12.214 9.45262 13.3333 10.8333 13.3333Z" fill="#0F0F0F"/>
<path d="M8.33334 16.6667C8.33334 15.7462 9.07954 15 10 15H11.6667C12.5871 15 13.3333 15.7462 13.3333 16.6667V30C13.3333 30.9205 12.5871 31.6667 11.6667 31.6667H10C9.07954 31.6667 8.33334 30.9205 8.33334 30V16.6667Z" fill="#0F0F0F"/>
<path d="M18.3333 31.6667H20C20.9205 31.6667 21.6667 30.9205 21.6667 30V22.5C21.6667 20 26.6667 18.3333 26.6667 21.6667V30.0007C26.6667 30.9212 27.4128 31.6667 28.3333 31.6667H30C30.9205 31.6667 31.6667 30.9205 31.6667 30V20C31.6667 16.6667 29.1667 15 25.8333 15C22.5 15 21.6667 17.5 21.6667 17.5V16.6667C21.6667 15.7462 20.9205 15 20 15H18.3333C17.4128 15 16.6667 15.7462 16.6667 16.6667V30C16.6667 30.9205 17.4128 31.6667 18.3333 31.6667Z" fill="#0F0F0F"/>
<path fill-rule="evenodd" clip-rule="evenodd" d="M33.3333 1.66675C36.0948 1.66675 38.3333 3.90533 38.3333 6.66675V33.3334C38.3333 36.0949 36.0948 38.3334 33.3333 38.3334H6.66667C3.90525 38.3334 1.66667 36.0949 1.66667 33.3334V6.66675C1.66667 3.90533 3.90525 1.66675 6.66667 1.66675H33.3333ZM33.3333 5.00008C34.2538 5.00008 35 5.74628 35 6.66675V33.3334C35 34.2539 34.2538 35.0001 33.3333 35.0001H6.66667C5.7462 35.0001 5 34.2539 5 33.3334V6.66675C5 5.74628 5.7462 5.00008 6.66667 5.00008H33.3333Z" fill="#0F0F0F"/>
</svg>
