<svg width="55" height="37" viewBox="0 0 55 37" fill="none" xmlns="http://www.w3.org/2000/svg">
<path fill-rule="evenodd" clip-rule="evenodd" d="M27.5003 0.21875C19.9867 0.21875 13.4085 4.71786 8.88836 8.88087C6.59199 10.9958 4.73987 13.1045 3.46197 14.6829C2.82178 15.4734 2.32247 16.1351 1.98035 16.6034C1.80921 16.8376 1.67718 17.0237 1.58632 17.1537C1.54087 17.2187 1.50569 17.2696 1.48104 17.3056L1.45198 17.3481L1.44342 17.3609L0.702315 18.5357L1.44066 19.6351L1.44342 19.6391L1.45198 19.6519L1.48104 19.6944C1.50569 19.7304 1.54087 19.7813 1.58632 19.8463C1.67718 19.9763 1.80921 20.1624 1.98035 20.3966C2.32247 20.8649 2.82178 21.5266 3.46197 22.3171C4.73987 23.8955 6.59199 26.0042 8.88836 28.1192C13.4085 32.2822 19.9867 36.7812 27.5003 36.7812C35.0137 36.7812 41.5917 32.2822 46.1119 28.1192C48.4083 26.0042 50.2606 23.8955 51.5384 22.3171C52.1786 21.5266 52.6777 20.8649 53.0201 20.3966C53.191 20.1624 53.3231 19.9763 53.4139 19.8463C53.4594 19.7813 53.4946 19.7304 53.5192 19.6944L53.5482 19.6519L53.5569 19.6391L53.5607 19.6337L54.322 18.5L53.5596 17.3649L53.5569 17.3609L53.5482 17.3481L53.5192 17.3056C53.4946 17.2696 53.4594 17.2187 53.4139 17.1537C53.3231 17.0237 53.191 16.8376 53.0201 16.6034C52.6777 16.1351 52.1786 15.4734 51.5384 14.6829C50.2606 13.1045 48.4083 10.9958 46.1119 8.88087C41.5917 4.71786 35.0137 0.21875 27.5003 0.21875ZM6.61935 19.761C6.23103 19.2814 5.90045 18.8551 5.63224 18.5C5.90045 18.1449 6.23103 17.7186 6.61935 17.239C7.80836 15.7705 9.52585 13.8167 11.6405 11.8691C15.9424 7.90714 21.5517 4.28125 27.5003 4.28125C33.4486 4.28125 39.0581 7.90714 43.3597 11.8691C45.4744 13.8167 47.192 15.7705 48.381 17.239C48.7694 17.7186 49.0998 18.1449 49.3682 18.5C49.0998 18.8551 48.7694 19.2814 48.381 19.761C47.192 21.2295 45.4744 23.1832 43.3597 25.1308C39.0581 29.0928 33.4486 32.7187 27.5003 32.7187C21.5517 32.7187 15.9424 29.0928 11.6405 25.1308C9.52585 23.1832 7.80836 21.2295 6.61935 19.761ZM33.5937 18.5C33.5937 21.8654 30.8656 24.5937 27.5 24.5937C24.1346 24.5937 21.4064 21.8654 21.4064 18.5C21.4064 15.1346 24.1346 12.4062 27.5 12.4062C30.8656 12.4062 33.5937 15.1346 33.5937 18.5ZM37.6562 18.5C37.6562 24.1092 33.1092 28.6562 27.5 28.6562C21.891 28.6562 17.3439 24.1092 17.3439 18.5C17.3439 12.8909 21.891 8.34375 27.5 8.34375C33.1092 8.34375 37.6562 12.8909 37.6562 18.5Z" fill="#2DD4BF"/>
</svg>
