<svg width="40" height="40" viewBox="0 0 40 40" fill="none" xmlns="http://www.w3.org/2000/svg">
<rect width="40" height="40" rx="5" fill="black"/>
<path d="M11.352 31L17.144 20.28L11.704 10.136H16.952L18.776 14.072C19.0107 14.5413 19.2453 15.0533 19.48 15.608C19.736 16.1627 20.0027 16.7707 20.28 17.432H20.408C20.6427 16.7707 20.8667 16.1627 21.08 15.608C21.3147 15.0533 21.5387 14.5413 21.752 14.072L23.416 10.136H28.44L23.032 20.504L28.792 31H23.544L21.464 26.744C21.208 26.1893 20.952 25.6453 20.696 25.112C20.4613 24.5573 20.1947 23.96 19.896 23.32H19.768C19.5333 23.96 19.2987 24.5573 19.064 25.112C18.8293 25.6453 18.5947 26.1893 18.36 26.744L16.408 31H11.352Z" fill="white"/>
</svg>
