<svg width="53" height="56" viewBox="0 0 53 56" fill="none" xmlns="http://www.w3.org/2000/svg">
<path d="M18.161 4.33656C16.283 3.65015 14.5041 3 11.75 3C5.91667 3 3 8.83333 3 16.125C3 20.7873 4.19248 23.6611 5.4337 26.6521C6.13367 28.3391 6.84915 30.0632 7.375 32.1667C7.80958 33.905 7.98517 36.4203 8.17186 39.0952C8.6117 45.3967 9.11333 52.5833 13.2083 52.5833C15.8304 52.5833 16.9792 48.4583 18.244 43.9167C19.7931 38.3541 21.5165 32.1667 26.3333 32.1667C31.1502 32.1667 32.8734 38.3541 34.4227 43.9167C35.6874 48.4583 36.8362 52.5833 39.4583 52.5833C43.5533 52.5833 44.055 45.3967 44.4948 39.0952C44.6815 36.4203 44.8571 33.905 45.2917 32.1667C45.8175 30.0632 46.533 28.3391 47.233 26.6521C48.4743 23.6611 49.6667 20.7873 49.6667 16.125C49.6667 8.83333 46.75 3 40.9167 3C38.1625 3 36.3836 3.65015 34.5055 4.33656C32.4058 5.10397 30.1825 5.91667 26.3333 5.91667C22.4842 5.91667 20.2607 5.10397 18.161 4.33656Z" stroke="#22D3EE" stroke-width="5" stroke-linecap="round" stroke-linejoin="round"/>
</svg>
