<svg width="71" height="74" viewBox="0 0 71 74" fill="none" xmlns="http://www.w3.org/2000/svg">
<path d="M32.3615 16.953C32.8085 15.7639 32.2461 14.4221 31.1051 13.9561C29.9644 13.4901 28.6769 14.0763 28.2298 15.2654L32.3615 16.953ZM39.9434 33.1508C41.1687 33.1486 42.1604 32.1117 42.1586 30.8346C42.1565 29.5574 41.1616 28.5237 39.9363 28.5257L39.9434 33.1508ZM30.2957 16.1092L29.7404 13.8702L29.7363 13.8714L30.2957 16.1092ZM55.5125 31.4303L53.3695 32.03C53.5473 32.7197 54.0209 33.2852 54.6528 33.5621C55.2844 33.839 56.0036 33.7958 56.6009 33.4455L55.5125 31.4303ZM56.0421 39.7553L56.8657 37.608C56.2281 37.3423 55.5087 37.3993 54.917 37.7619C54.3253 38.1248 53.928 38.7523 53.8411 39.462L56.0421 39.7553ZM14.9596 39.7553L17.1605 39.462C17.0734 38.7523 16.6761 38.1248 16.0845 37.7619C15.4928 37.3993 14.7734 37.3423 14.1361 37.608L14.9596 39.7553ZM15.4891 31.4303L14.4008 33.4455C14.9981 33.7958 15.7173 33.839 16.3491 33.5621C16.9809 33.2852 17.4545 32.7194 17.6321 32.0297L15.4891 31.4303ZM28.2298 15.2654C25.9289 21.3847 28.3332 28.334 33.8516 31.5144L36.0011 27.4684C32.4304 25.4104 30.8726 20.9126 32.3615 16.953L28.2298 15.2654ZM33.8516 31.5144C35.7159 32.5921 37.8113 33.1545 39.9434 33.1508L39.9363 28.5257C38.5595 28.5281 37.2052 28.1641 36.0011 27.4684L33.8516 31.5144ZM30.8507 18.3481C40.6871 15.6989 50.7348 21.8036 53.3695 32.03L57.6552 30.8305C54.3889 18.1537 41.9338 10.5862 29.7404 13.8702L30.8507 18.3481ZM56.6009 33.4455C57.5017 32.9167 58.6336 33.107 59.3297 33.9037L62.6107 30.7898C60.5225 28.3996 57.1269 27.8294 54.4241 29.4151L56.6009 33.4455ZM59.3297 33.9037C60.0258 34.7005 60.1015 35.8928 59.5125 36.7783L63.1592 39.4133C64.9265 36.7567 64.699 33.1801 62.6107 30.7898L59.3297 33.9037ZM59.5125 36.7783C58.9235 37.6638 57.8256 38.0079 56.8657 37.608L55.2185 41.9025C58.0984 43.1025 61.3919 42.0699 63.1592 39.4133L59.5125 36.7783ZM53.8411 39.462C52.6613 49.082 44.806 56.2893 35.5009 56.2893V60.9143C47.0393 60.9143 56.7799 51.9773 58.2428 40.0485L53.8411 39.462ZM35.5009 56.2893C26.1957 56.2893 18.3403 49.082 17.1605 39.462L12.7588 40.0485C14.2218 51.9773 23.9625 60.9143 35.5009 60.9143V56.2893ZM14.1361 37.608C13.1761 38.0079 12.0782 37.6638 11.4892 36.7783L7.84238 39.4133C9.6096 42.0699 12.9031 43.1025 15.7831 41.9025L14.1361 37.608ZM11.4892 36.7783C10.9001 35.8928 10.9759 34.7005 11.672 33.9037L8.39092 30.7898C6.30266 33.1801 6.07516 36.7567 7.84238 39.4133L11.4892 36.7783ZM11.672 33.9037C12.3681 33.107 13.4999 32.9167 14.4008 33.4455L16.5775 29.4151C13.8746 27.8294 10.4791 28.3996 8.39092 30.7898L11.672 33.9037ZM17.6321 32.0297C19.3587 25.3224 24.4076 20.098 30.8551 18.3469L29.7363 13.8714C21.7444 16.0419 15.4863 22.5175 13.3462 30.831L17.6321 32.0297Z" fill="#22D3EE"/>
<path d="M26.6271 38.5466C25.8115 38.5466 25.148 37.855 25.148 37.0049C25.148 36.1548 25.8115 35.4633 26.6271 35.4633C27.4428 35.4633 28.1063 36.1548 28.1063 37.0049C28.1063 37.855 27.4428 38.5466 26.6271 38.5466Z" fill="#22D3EE"/>
<path d="M26.6272 40.0883C24.9933 40.0883 23.6688 38.7079 23.6688 37.005C23.6688 35.302 24.9933 33.9216 26.6272 33.9216C28.261 33.9216 29.5854 35.302 29.5854 37.005C29.5854 38.7079 28.261 40.0883 26.6272 40.0883Z" fill="#22D3EE"/>
<path d="M44.3771 38.5466C43.5614 38.5466 42.8979 37.855 42.8979 37.0049C42.8979 36.1548 43.5614 35.4633 44.3771 35.4633C45.1927 35.4633 45.8562 36.1548 45.8562 37.0049C45.8562 37.855 45.1927 38.5466 44.3771 38.5466Z" fill="#22D3EE"/>
<path d="M44.3771 40.0883C42.7435 40.0883 41.4187 38.7079 41.4187 37.005C41.4187 35.302 42.7435 33.9216 44.3771 33.9216C46.011 33.9216 47.3354 35.302 47.3354 37.005C47.3354 38.7079 46.011 40.0883 44.3771 40.0883Z" fill="#22D3EE"/>
</svg>
