<svg width="62" height="63" viewBox="0 0 62 63" fill="none" xmlns="http://www.w3.org/2000/svg">
<path d="M6.45714 20.5844C5.00982 20.5844 3.62177 19.8966 2.59836 18.6723C1.57495 17.4481 1 15.7876 1 14.0563V10.6384C1.03004 8.06967 1.90419 5.61832 3.43339 3.81461C4.96258 2.01089 7.02388 0.999809 9.17142 1.00006C10.2493 0.995544 11.3173 1.24618 12.3139 1.73755C13.3105 2.22891 14.2159 2.95128 14.9781 3.86305C15.7403 4.77483 16.3442 5.85798 16.7549 7.05013C17.1657 8.24229 17.3752 9.51987 17.3714 10.8093C17.3678 12.7318 17.8483 14.6111 18.7503 16.2023C19.6524 17.7934 20.9341 19.0227 22.4286 19.7299C27.931 22.362 34.0689 22.362 39.5714 19.7299C41.0658 19.0227 42.3476 17.7934 43.2496 16.2023C44.1517 14.6111 44.6322 12.7318 44.6285 10.8093C44.6248 9.51987 44.8343 8.24229 45.245 7.05013C45.6558 5.85798 46.2596 4.77483 47.0218 3.86305C47.784 2.95128 48.6895 2.22891 49.6861 1.73755C50.6826 1.24618 51.7506 0.995544 52.8285 1.00006C53.904 1.00005 54.9689 1.25402 55.9622 1.7474C56.9555 2.24078 57.8576 2.96386 58.6167 3.87518C59.3759 4.78651 59.9772 5.86814 60.3862 7.05805C60.7951 8.24797 61.0037 9.52276 61 10.8093V14.2272C61 15.9585 60.425 17.619 59.4016 18.8432C58.3782 20.0675 56.9901 20.7553 55.5428 20.7553" stroke="#22D3EE" stroke-width="2" stroke-miterlimit="10"/>
<path d="M17.3714 10.8093V25.8479C17.3415 31.0829 18.6363 36.2063 21.0857 40.5447C22.9444 43.6087 25.3566 46.132 28.1428 47.9272L31 49.9438L34.2285 47.7222C36.0872 46.4654 37.7735 44.8746 39.2285 43.0055C42.699 38.2792 44.6178 32.207 44.6285 25.9163V10.8093" stroke="#22D3EE" stroke-width="2" stroke-miterlimit="10"/>
<path d="M31 62.9999V49.9437" stroke="#22D3EE" stroke-width="2" stroke-miterlimit="10"/>
<path d="M55.5428 27.0783C57.0419 27.0783 58.2571 25.6246 58.2571 23.8313C58.2571 22.0381 57.0419 20.5844 55.5428 20.5844C54.0437 20.5844 52.8285 22.0381 52.8285 23.8313C52.8285 25.6246 54.0437 27.0783 55.5428 27.0783Z" stroke="#22D3EE" stroke-width="2" stroke-miterlimit="10"/>
<path d="M6.45714 27.0783C7.9562 27.0783 9.17143 25.6246 9.17143 23.8313C9.17143 22.0381 7.9562 20.5844 6.45714 20.5844C4.95809 20.5844 3.74286 22.0381 3.74286 23.8313C3.74286 25.6246 4.95809 27.0783 6.45714 27.0783Z" stroke="#22D3EE" stroke-width="2" stroke-miterlimit="10"/>
</svg>
