<svg width="56" height="60" viewBox="0 0 56 60" fill="none" xmlns="http://www.w3.org/2000/svg">
<path d="M55.1332 36.5753C55.1332 33.8277 53.6411 31.3428 51.2709 30.042C51.3407 29.7209 51.3759 29.393 51.3759 29.0607C51.3759 28.3788 51.2234 27.7079 50.931 27.0909C51.8384 25.718 52.3152 24.1375 52.3152 22.4853C52.3152 19.647 50.8787 17.0142 48.5266 15.4685C48.5477 15.2992 48.5579 15.1348 48.5579 14.9706C48.5579 13.5081 47.85 12.1324 46.679 11.2626C46.6791 11.2462 46.6792 11.2299 46.6792 11.2133C46.6792 7.82348 44.3715 4.86082 41.1314 4.00521C39.8515 1.55824 37.3058 0 34.5266 0C31.684 0 29.2088 1.59945 27.9512 3.94509C26.6937 1.59945 24.2184 0 21.3759 0C18.5966 0 16.0509 1.55824 14.7711 4.00521C11.5309 4.86082 9.22324 7.82348 9.22324 11.2133C9.22324 11.2299 9.22336 11.2462 9.22347 11.2626C8.05247 12.1324 7.34457 13.5081 7.34457 14.9706C7.34457 15.1348 7.35478 15.2991 7.3758 15.4685C5.02371 17.0142 3.58723 19.647 3.58723 22.4853C3.58723 24.1375 4.06406 25.718 4.97146 27.0909C4.67909 27.7079 4.52656 28.3788 4.52656 29.0607C4.52656 29.393 4.56167 29.7209 4.63154 30.042C2.26136 31.3428 0.769226 33.8277 0.769226 36.5753C0.769226 39.8567 2.93099 42.7119 5.97091 43.6767C5.63815 44.3955 5.4659 45.1708 5.4659 45.9687C5.4659 48.4317 7.08496 50.5794 9.39478 51.2917C10.1221 54.6894 13.1522 57.182 16.6792 57.182C17.2315 57.182 17.783 57.1189 18.3267 56.994C19.2755 58.8208 21.1646 60 23.2545 60C25.225 60 26.9588 58.9719 27.9512 57.4248C28.9436 58.9719 30.6774 60 32.6479 60C34.7378 60 36.6269 58.8208 37.5758 56.994C38.1194 57.1189 38.6709 57.182 39.2232 57.182C42.7502 57.182 45.7804 54.6894 46.5077 51.2917C48.8175 50.5794 50.4365 48.4317 50.4365 45.9687C50.4365 45.1708 50.2643 44.3955 49.9315 43.6767C52.9715 42.7119 55.1332 39.8567 55.1332 36.5753ZM23.2545 58.2387C21.6354 58.2387 20.1917 57.1983 19.6621 55.6497C19.5862 55.4281 19.4254 55.2459 19.2149 55.1433C19.0045 55.0405 18.7618 55.026 18.5406 55.1025C17.9309 55.3137 17.3046 55.4207 16.6791 55.4207C13.8293 55.4207 11.4043 53.2897 11.0383 50.4638C10.9893 50.086 10.7032 49.7826 10.329 49.7117C8.53165 49.371 7.22715 47.7968 7.22715 45.9687C7.22715 45.2505 7.43627 44.5558 7.83384 43.9387C7.95185 43.9974 8.08441 44.0313 8.22519 44.0313C9.61259 44.0313 10.9392 43.6564 12.0922 42.9541C12.4567 45.6794 14.7951 47.7887 17.6185 47.7887C20.6938 47.7887 23.1958 45.2866 23.1958 42.2113C23.1958 41.725 22.8016 41.3307 22.3152 41.3307C21.8289 41.3307 21.4346 41.725 21.4346 42.2113C21.4346 44.3156 19.7227 46.0274 17.6185 46.0274C15.5144 46.0274 13.8025 44.3156 13.8025 42.2113C13.8025 41.9539 13.8282 41.6967 13.8788 41.4472C13.9437 41.1271 13.8257 40.8129 13.5972 40.6114C13.5788 40.5895 13.5593 40.5682 13.5385 40.5478C13.1911 40.2074 12.6335 40.213 12.2932 40.5605C11.213 41.6629 9.76829 42.2701 8.22519 42.2701C8.0897 42.2701 7.96183 42.3015 7.84723 42.3562C7.73698 42.2826 7.61064 42.2321 7.47467 42.2142C4.65596 41.8424 2.53048 39.4184 2.53048 36.5753C2.53048 34.2696 3.90637 32.2061 6.03584 31.3181C6.25142 31.2282 6.42238 31.0564 6.51126 30.8404C6.60015 30.6243 6.59956 30.382 6.50962 30.1664C6.36249 29.8134 6.28782 29.4414 6.28782 29.0607C6.28782 28.5149 6.44762 27.9784 6.74985 27.5092C6.95063 27.1975 6.93467 26.7932 6.70981 26.4984C5.81921 25.3302 5.34848 23.9426 5.34848 22.4853C5.34848 20.0711 6.66414 17.8449 8.78199 16.6754C8.78739 16.6725 8.79173 16.6684 8.79702 16.6654C9.7684 16.1328 10.8663 15.8513 11.9824 15.8513C13.8855 15.8513 15.6996 16.6706 16.9597 18.0992C17.1337 18.2966 17.3765 18.3973 17.6204 18.3973C17.8274 18.3973 18.0351 18.3248 18.2026 18.1772C18.5673 17.8555 18.6023 17.299 18.2805 16.9342C16.6865 15.1267 14.3909 14.09 11.9825 14.09C11.0062 14.09 10.0408 14.2611 9.13107 14.589C9.2479 13.7114 9.76606 12.9426 10.5665 12.485C10.8618 12.3162 11.0336 11.9925 11.0075 11.6534C10.9956 11.4983 10.9845 11.3519 10.9845 11.2133C10.9845 8.50978 12.9057 6.16203 15.5526 5.63108C15.8315 5.57519 16.0662 5.38791 16.1828 5.12841C17.1013 3.08301 19.1398 1.76125 21.3759 1.76125C24.516 1.76125 27.0706 4.31589 27.0706 7.45597V24.6117C25.8806 23.3406 24.1897 22.544 22.3152 22.544C21.2278 22.544 20.1719 22.8112 19.2262 23.3214C18.4684 22.8166 17.5845 22.544 16.6792 22.544C16.1929 22.544 15.7986 22.9383 15.7986 23.4247C15.7986 23.911 16.1929 24.3053 16.6792 24.3053C17.3711 24.3053 18.0466 24.5674 18.5812 25.0434C18.8819 25.3111 19.3258 25.3407 19.6594 25.1156C20.445 24.5856 21.3633 24.3054 22.3152 24.3054C24.9374 24.3054 27.0706 26.4386 27.0706 29.0608V54.4228C27.0706 56.5269 25.3587 58.2387 23.2545 58.2387ZM48.4279 42.2142C48.2918 42.2321 48.1656 42.2826 48.0553 42.3562C47.9406 42.3015 47.8129 42.2701 47.6774 42.2701C46.1342 42.2701 44.6895 41.6629 43.6093 40.5605C43.2691 40.2132 42.7115 40.2073 42.364 40.5478C42.3432 40.5681 42.3239 40.5894 42.3055 40.6112C42.0768 40.8127 41.9587 41.1271 42.0236 41.4473C42.0744 41.6968 42.0999 41.9539 42.0999 42.2115C42.0999 44.3157 40.388 46.0275 38.2839 46.0275C37.7976 46.0275 37.4033 46.4218 37.4033 46.9081C37.4033 47.3945 37.7976 47.7888 38.2839 47.7888C41.1073 47.7888 43.4458 45.6795 43.8102 42.9542C44.9633 43.6564 46.2899 44.0314 47.6772 44.0314C47.818 44.0314 47.9506 43.9975 48.0686 43.9388C48.4662 44.5558 48.6753 45.2505 48.6753 45.9688C48.6753 47.7969 47.3708 49.3711 45.5734 49.7117C45.1992 49.7826 44.913 50.086 44.8641 50.4638C44.4981 53.2897 42.0731 55.4207 39.2232 55.4207C38.5978 55.4207 37.9715 55.3137 37.3617 55.1025C37.1405 55.026 36.8978 55.0405 36.6874 55.1433C36.477 55.2459 36.3161 55.4283 36.2403 55.6497C35.7107 57.1983 34.2671 58.2387 32.6479 58.2387C30.5438 58.2387 28.8318 56.5269 28.8318 54.4227V36.3276C30.0219 37.5987 31.7128 38.3953 33.5872 38.3953C34.6746 38.3953 35.7306 38.1282 36.6762 37.6179C37.434 38.1228 38.318 38.3953 39.2232 38.3953C39.7096 38.3953 40.1039 38.001 40.1039 37.5147C40.1039 37.0283 39.7096 36.6341 39.2232 36.6341C38.5313 36.6341 37.8558 36.372 37.3212 35.896C37.0205 35.6284 36.5768 35.5987 36.2431 35.8238C35.4574 36.3538 34.5391 36.6339 33.5872 36.6339C30.9651 36.6339 28.8318 34.5007 28.8318 31.8786V17.6663C29.4041 18.1202 30.0854 18.4424 30.8298 18.5858C30.8286 18.6331 30.8279 18.6807 30.8279 18.728C30.8279 21.8032 33.33 24.3053 36.4052 24.3053C39.4805 24.3053 41.9825 21.8032 41.9825 18.728C41.9825 18.2416 41.5882 17.8474 41.1019 17.8474C40.6156 17.8474 40.2213 18.2416 40.2213 18.728C40.2213 20.8322 38.5093 22.544 36.4052 22.544C34.3011 22.544 32.5892 20.8322 32.5892 18.728C32.5892 18.4686 32.6155 18.2088 32.6674 17.956C32.7213 17.6928 32.6522 17.4194 32.4798 17.2134C32.3073 17.0076 32.0493 16.8915 31.7816 16.8986C31.7358 16.8999 31.6966 16.9038 31.6657 16.9077C30.0992 16.8847 28.8318 15.6032 28.8318 14.0313V7.45597C28.8318 4.31589 31.3865 1.76125 34.5266 1.76125C36.7626 1.76125 38.8011 3.08301 39.7198 5.12853C39.8364 5.38802 40.071 5.5753 40.35 5.63119C42.9968 6.16203 44.918 8.50978 44.918 11.2133C44.918 11.3519 44.9068 11.4983 44.8949 11.6534C44.869 11.9925 45.0407 12.3163 45.336 12.485C46.1364 12.9426 46.6545 13.7114 46.7714 14.589C45.8615 14.2611 44.8961 14.09 43.9199 14.09C43.4336 14.09 43.0393 14.4843 43.0393 14.9706C43.0393 15.457 43.4336 15.8513 43.9199 15.8513C45.0362 15.8513 46.1339 16.1327 47.1053 16.6654C47.1106 16.6685 47.1151 16.6725 47.1203 16.6754C49.2383 17.8449 50.554 20.0711 50.554 22.4853C50.554 23.9426 50.0832 25.3302 49.1926 26.4984C48.9678 26.7933 48.9518 27.1975 49.1526 27.5092C49.4548 27.9784 49.6146 28.5148 49.6146 29.0607C49.6146 29.4414 49.5399 29.8134 49.3928 30.1664C49.3029 30.382 49.3023 30.6243 49.3912 30.8404C49.4801 31.0564 49.651 31.2282 49.8666 31.3181C51.9961 32.2061 53.372 34.2696 53.372 36.5753C53.372 39.4184 51.2465 41.8424 48.4279 42.2142Z" fill="#22D3EE"/>
</svg>
