<svg width="77" height="73" viewBox="0 0 77 73" fill="none" xmlns="http://www.w3.org/2000/svg">
<g clip-path="url(#clip0_20_128)">
<path d="M32.5375 36.6997C34.7337 36.9144 36.8797 36.264 38.5004 34.9416C39.9176 36.0982 41.7186 36.7401 43.6337 36.7401C43.9083 36.7401 44.1872 36.7264 44.4625 36.6997C48.1305 36.3428 51.0865 33.5633 51.4904 30.0917C51.7722 27.6708 50.8021 25.263 48.8953 23.6505C46.4697 21.5985 45.0788 18.7715 45.0788 15.8941V1.37003C45.0788 0.613431 44.4318 0 43.6337 0H33.3666C32.5686 0 31.9215 0.613431 31.9215 1.37003V15.8941C31.9215 18.7711 30.5303 21.5985 28.1047 23.6505C26.1986 25.263 25.2282 27.6708 25.5096 30.092C25.9139 33.5633 28.8691 36.3424 32.5375 36.6997Z" fill="#2DD4BF"/>
<path d="M52.779 39.7206C52.7776 39.7083 52.7765 39.6966 52.7754 39.6898C52.6233 38.4283 51.4875 37.4772 50.1334 37.4772C49.4203 37.4772 48.7476 37.7412 48.2392 38.2201C47.3079 39.0969 46.0922 39.6483 44.8162 39.7727C43.4849 39.9018 42.168 39.5994 41.0676 38.9113C40.3067 38.4355 39.4187 38.1841 38.5004 38.1841C37.5816 38.1841 36.694 38.4355 35.9335 38.9113C34.8327 39.599 33.5133 39.9025 32.1845 39.7727C30.9085 39.6483 29.6928 39.0969 28.7615 38.2201C28.2528 37.7412 27.5797 37.4772 26.8669 37.4772C25.5129 37.4772 24.3767 38.4287 24.2213 39.7209C23.911 42.388 24.9883 45.0312 27.1032 46.7924C29.8016 49.0395 31.3493 52.1451 31.3493 55.3136V71.6303C31.3493 72.3869 31.9963 73.0003 32.7944 73.0003H44.2067C45.0048 73.0003 45.6518 72.3869 45.6518 71.6303V55.3136C45.6518 52.1454 47.1995 49.0395 49.8979 46.7924C52.0124 45.0308 53.0897 42.3874 52.779 39.7206Z" fill="#2DD4BF"/>
</g>
<defs>
<clipPath id="clip0_20_128">
<rect width="77" height="73" fill="white"/>
</clipPath>
</defs>
</svg>
