<svg width="156" height="156" viewBox="0 0 156 156" fill="none" xmlns="http://www.w3.org/2000/svg">
<path d="M48.36 18.72L51.324 20.124L77.532 33.228L78.468 33.072L107.172 18.72L109.98 18.876L111.072 19.188L117.78 23.712L124.644 28.236L131.352 32.76L138.216 37.284L138.996 38.064L140.244 40.404V99.996L138.684 102.648L137.28 103.584L132.912 106.08L128.856 108.42L120.12 113.412L116.376 115.596L112.476 117.78L108.732 119.964L99.996 124.956L96.252 127.14L92.352 129.324L88.608 131.508L79.872 136.5L79.404 136.812H76.44L72.54 134.628L68.796 132.444L65.208 130.416L61.464 128.232L57.564 126.048L53.82 123.864L45.084 118.872L41.34 116.688L37.44 114.504L33.696 112.32L24.96 107.328L21.216 105.144L17.316 102.96L15.6 100.152V40.248L17.004 37.752L18.72 36.504L25.584 31.98L32.292 27.456L39.156 22.932L44.928 19.032L45.864 18.876L48.36 18.72ZM50.232 27.3V41.184L50.388 47.424L53.352 46.02L59.592 42.9L62.556 41.34L70.356 37.44L69.888 36.972L50.544 27.3H50.232ZM105.612 27.144L79.716 40.092L76.752 41.652L64.896 47.58L61.932 49.14L53.82 53.196L53.664 53.508L56.472 55.224L59.124 56.94L79.716 70.044L80.652 70.668L81.276 70.512L83.304 68.952L105.768 51.48V27.144H105.612ZM43.212 28.392L36.504 32.916L29.64 37.44L22.932 41.964L22.308 42.432V97.812L23.712 98.748L27.924 101.088L31.668 103.272L40.404 108.264L44.46 110.604L48.828 113.1L52.884 115.44L61.62 120.432L65.676 122.772L70.044 125.268L74.1 127.608L77.688 129.636L78.468 129.48L82.212 127.296L90.948 122.304L95.004 119.964L98.436 117.936L97.812 117.312L95.004 115.596L47.112 85.332L45.084 84.084L43.524 81.276L43.368 28.392H43.212ZM112.632 28.548V67.08L112.476 81.9L111.852 83.148L111.696 83.616L111.072 83.928L106.704 86.58L101.712 89.544L97.344 92.196L92.352 95.16L87.984 97.812L83.772 100.308L84.552 100.932L102.804 112.476L104.988 113.88L105.924 113.724L109.668 111.54L113.568 109.356L116.22 107.796L120.588 105.3L124.644 102.96L133.38 97.968V42.276L126.516 37.752L119.808 33.228L112.944 28.704L112.632 28.548ZM50.388 59.436V79.404L53.196 81.12L74.412 94.536L77.064 96.252L77.844 95.94L82.368 93.288L86.736 90.636L91.728 87.672L96.096 85.02L101.088 82.056L105.456 79.404L105.768 79.248V60.06L104.364 60.996L102.024 62.868L99.996 64.428L85.956 75.348L83.304 77.376L82.212 77.532H79.092L51.636 60.06L50.7 59.436H50.388Z" fill="url(#paint0_linear_35_173)"/>
<defs>
<linearGradient id="paint0_linear_35_173" x1="77.922" y1="18.72" x2="77.922" y2="136.812" gradientUnits="userSpaceOnUse">
<stop stop-color="#5EEAD4"/>
<stop offset="1" stop-color="#67E8F9"/>
</linearGradient>
</defs>
</svg>
